<svg xmlns="http://www.w3.org/2000/svg" height="250" width="270">
  <svg xmlns="http://www.w3.org/2000/svg" width="218.08923" height="144.07742" x="20" y="0" data-layer-role="icon" data-root-id="2994624956964" preserveAspectRatio="xMinYMin" viewBox="40.6 148.88 638.30994 421.69">
    <path d="M40.6 359.72c0-116.26 94.59-210.84 210.85-210.84H340a248.08 248.08 0 0 0-46.31 36.43l-.08-.08c-2.48 2.48-4.79 5.09-7.15 7.66-.4.43-.81.85-1.2 1.29-.22.24-.45.47-.66.71h-33.15c-90.89 0-164.84 73.94-164.84 164.83s74 164.84 164.84 164.84 164.83-73.95 164.83-164.84a51.85 51.85 0 0 1 39.87-50.35 211.87 211.87 0 0 1 6.18 50.35 209.79 209.79 0 0 1-16.39 81.47l-.51 1.18q-1.78 4.19-3.74 8.27l-.76 1.53c-34.32 70-106.34 118.4-189.44 118.4-116.3 0-210.89-94.57-210.89-210.85Zm427.47 210.85h-88.52a249 249 0 0 0 53.59-44.06h34.93c92 0 166.79-74.82 166.79-166.79S560 192.94 468.07 192.94s-166.78 74.82-166.78 166.78a49.89 49.89 0 0 1-38.44 48.48 212.73 212.73 0 0 1-3.45-78.43c.13-1 .25-1.91.4-2.87q.65-4.09 1.46-8.15c.24-1.23.51-2.45.77-3.68a208.47 208.47 0 0 1 7.26-25.53c.38-1.09.75-2.17 1.16-3.25 1-2.6 2-5.17 3.05-7.72.37-.89.77-1.78 1.15-2.66a211.81 211.81 0 0 1 12.6-24.49l1.11-1.82a212.87 212.87 0 0 1 16.36-23l1.1-1.35c2-2.38 4-4.71 6.07-7 .28-.31.57-.61.85-.91a210.31 210.31 0 0 1 155.33-68.45c116.26 0 210.84 94.58 210.84 210.84s-94.58 210.84-210.84 210.84Z" class="cls-1" style="fill:#3f63c8;fill-opacity:1"/>
    <path d="M222.64 321.29c-.18 1.14-.32 2.29-.48 3.43a245.45 245.45 0 0 0-2.47 32.55c0 .82-.06 1.63-.06 2.45h.05a245.65 245.65 0 0 0 3.58 42.13 49.7 49.7 0 0 1-.11-84.19c-.21 1.2-.32 2.42-.51 3.63Zm269.8-6.29a51.66 51.66 0 0 1 .13 89.31 244.88 244.88 0 0 0-.13-89.31Z" class="cls-2" style="fill:#4a73e8;fill-opacity:1"/>
    <path d="M254.77 233A244.94 244.94 0 0 0 240 261.69c-.44 1-.89 2-1.31 3-1.26 3-2.46 6-3.59 9.09l-.61 1.59a85.75 85.75 0 1 0 101.07 84.33c0-72.15 58.7-130.85 130.85-130.85s130.86 58.7 130.86 130.85-58.72 130.87-130.87 130.87h-7.49a249.58 249.58 0 0 0 12.61-22.67c.28-.59.59-1.17.87-1.76 1.55-3.21 3-6.45 4.4-9.71l.57-1.33c1.25-3 2.47-6 3.6-9a87.68 87.68 0 1 0-102.28-86.41 129 129 0 0 1-128.9 128.9c-71.08 0-128.91-57.82-128.91-128.9s57.83-128.9 128.91-128.9h6.29c-.44.76-.88 1.47-1.3 2.21Z" class="cls-3" style="fill:#819ef0;fill-opacity:1"/>
  </svg>
  <svg xmlns="http://www.w3.org/2000/svg" width="75.43999" height="9.21" x="90" y="200" data-layer-role="slogan" data-root-id="1896460757091" viewBox="1.08 3.48 75.43999 9.21">
    <path d="M4.45 8.96 2.96 10.5l-.11-2.43L7.2 3.48h2.34L5.62 7.71 4.45 8.96Zm-1.28 3.62H1.08v-9.1h2.09v9.1Zm6.59 0H7.31L4.07 8.62l1.38-1.5 4.31 5.46Zm5.88-3.79V7.15h4.38v1.64h-4.38Zm.15-3.62v5.72h4.96v1.69H13.7v-9.1h6.88v1.69h-4.79Zm11.57 3.62V7.15h4.38v1.64h-4.38Zm.16-3.62v5.72h4.95v1.69h-7.05v-9.1h6.88v1.69h-4.78Zm11.73 7.41h-2.1v-9.1h3.93q1.23 0 2.11.4.88.4 1.37 1.14.48.74.48 1.77 0 1.01-.48 1.75-.49.74-1.37 1.14-.88.4-2.11.4h-2.76l.93-.95v3.45Zm0-8.38v5.16l-.93-1h2.65q.97 0 1.45-.42.48-.41.48-1.15 0-.76-.48-1.17-.48-.42-1.45-.42h-2.65l.93-1Zm19.2 8.38h-2.11v-9.1h2.11v9.1Zm9.14 0h-2.1V5.2h-2.91V3.48h7.93V5.2h-2.92v7.38Zm7.67.11q-.52 0-.89-.36t-.37-.92q0-.55.37-.9.37-.34.89-.34.54 0 .9.34.36.35.36.9 0 .56-.36.92t-.9.36Z" style="fill:#819ef0;fill-opacity:1"/>
  </svg>
  <svg xmlns="http://www.w3.org/2000/svg" width="256.53" height="30.91" x="0" y="160" data-layer-role="brandName" data-root-id="6721843457168"  viewBox="1.12 6.27 256.53 30.91">
    <path d="M9.95 31.3q-2.62 0-5.02-.76-2.4-.75-3.81-1.93l1.44-3.23q1.34 1.05 3.33 1.76 1.98.7 4.06.7 1.76 0 2.85-.38 1.09-.39 1.6-1.04.51-.66.51-1.49 0-1.03-.73-1.65-.74-.62-1.91-.99t-2.59-.69q-1.42-.32-2.85-.75-1.42-.43-2.59-1.12-1.17-.69-1.9-1.84-.74-1.15-.74-2.95 0-1.82.98-3.34.97-1.52 2.97-2.43 2-.91 5.07-.91 2.02 0 4 .51 1.99.51 3.46 1.47l-1.31 3.23q-1.51-.89-3.11-1.33-1.6-.43-3.07-.43-1.73 0-2.8.42-1.07.41-1.57 1.09-.49.67-.49 1.53 0 1.03.72 1.65.72.62 1.89.98 1.16.35 2.6.68 1.44.34 2.87.76 1.42.41 2.59 1.08 1.17.68 1.89 1.83t.72 2.91q0 1.79-.98 3.31-.97 1.52-2.99 2.43-2.02.92-5.09.92Zm25.03-.1q-2.17 0-3.84-.82-1.66-.81-2.59-2.49-.93-1.68-.93-4.24v-9.76h4v9.21q0 2.31 1.04 3.44 1.04 1.14 2.96 1.14 1.41 0 2.45-.58 1.04-.57 1.63-1.72.6-1.16.6-2.85v-8.64h4v17.09h-3.81v-4.61l.67 1.41q-.86 1.66-2.53 2.54-1.66.88-3.65.88Zm29.04 0q-2.08 0-3.8-.96-1.71-.96-2.72-2.9-1-1.93-1-4.91 0-3.01.97-4.93.98-1.92 2.67-2.86 1.7-.94 3.88-.94 2.52 0 4.46 1.08 1.94 1.09 3.07 3.04 1.14 1.96 1.14 4.61 0 2.66-1.14 4.63-1.13 1.96-3.07 3.05-1.94 1.09-4.46 1.09Zm-5.48 5.98h-4V13.89h3.81v4.03l-.13 4.54.32 4.55v10.17Zm5.03-9.4q1.44 0 2.57-.64 1.14-.64 1.81-1.86.67-1.22.67-2.85 0-1.66-.67-2.86t-1.81-1.84q-1.13-.64-2.57-.64t-2.59.64q-1.16.64-1.83 1.84-.67 1.2-.67 2.86 0 1.63.67 2.85.67 1.22 1.83 1.86 1.15.64 2.59.64Zm32.23 3.2h-3.78v-3.46l-.22-.74v-6.04q0-1.76-1.06-2.74-1.05-.98-3.2-.98-1.44 0-2.83.45-1.39.45-2.35 1.25l-1.57-2.91q1.38-1.06 3.28-1.59 1.91-.52 3.95-.52 3.72 0 5.75 1.77 2.03 1.78 2.03 5.49v10.02Zm-9.15.22q-1.92 0-3.36-.66-1.44-.65-2.23-1.82-.78-1.17-.78-2.64 0-1.44.69-2.59t2.25-1.83q1.57-.67 4.16-.67h4.96v2.66h-4.67q-2.05 0-2.75.65-.7.66-.7 1.62 0 1.09.86 1.73.86.64 2.4.64 1.47 0 2.64-.67 1.17-.68 1.68-1.99l.67 2.4q-.57 1.51-2.06 2.34-1.49.83-3.76.83Zm20.77-.22h-4.28l10.08-22.4h4.09l10.11 22.4h-4.35l-8.67-20.2h1.66l-8.64 20.2Zm14.69-5.19h-14.33l1.12-3.26h12.09l1.12 3.26Zm16.78 5.19h-4V13.89h3.81v4.7l-.45-1.37q.77-1.73 2.41-2.63 1.65-.89 4.12-.89v3.8q-.26-.06-.48-.08-.23-.01-.45-.01-2.27 0-3.62 1.33-1.34 1.32-1.34 3.95v8.29Zm22.28.22q-2.69 0-4.79-1.14-2.09-1.13-3.28-3.12-1.18-1.98-1.18-4.51 0-2.56 1.18-4.53 1.19-1.96 3.28-3.08 2.1-1.12 4.79-1.12 2.49 0 4.4 1 1.9 1.01 2.89 2.96l-3.07 1.8q-.77-1.22-1.87-1.8-1.1-.57-2.38-.57-1.48 0-2.66.64-1.18.64-1.86 1.84-.67 1.2-.67 2.86 0 1.67.67 2.87.68 1.2 1.86 1.84 1.18.64 2.66.64 1.28 0 2.38-.58 1.1-.58 1.87-1.79l3.07 1.79q-.99 1.92-2.89 2.96-1.91 1.04-4.4 1.04Zm25.45-17.5q2.04 0 3.66.8t2.54 2.44q.93 1.65.93 4.24v9.8h-4V21.7q0-2.28-1.07-3.4t-2.99-1.12q-1.41 0-2.5.58t-1.68 1.71q-.59 1.14-.59 2.87v8.64h-4V7.23h4V18.5l-.86-1.41q.89-1.63 2.6-2.51 1.72-.88 3.96-.88Zm21.22 17.28h-4V13.89h4v17.09Zm-1.98-19.91q-1.12 0-1.84-.7-.72-.71-.72-1.7 0-1.02.72-1.71t1.84-.69q1.12 0 1.84.66.72.65.72 1.65 0 1.05-.71 1.77-.7.72-1.85.72Zm20.9 19.91h-4.13l-7.33-17.09h4.16l6.31 15.07h-2.05l6.53-15.07h3.84l-7.33 17.09Zm22.86.22q-2.85 0-4.98-1.14-2.13-1.13-3.3-3.12-1.16-1.98-1.16-4.51 0-2.56 1.13-4.53 1.14-1.96 3.14-3.08t4.56-1.12q2.49 0 4.45 1.08 1.95 1.09 3.07 3.08 1.12 1.98 1.12 4.67 0 .25-.02.57-.01.32-.05.61h-14.24v-2.65h12.13l-1.57.83q.04-1.47-.6-2.59-.64-1.12-1.75-1.76-1.1-.64-2.54-.64-1.47 0-2.58.64-1.1.64-1.73 1.77-.62 1.14-.62 2.67v.64q0 1.54.7 2.72.71 1.19 1.99 1.83 1.28.64 2.94.64 1.44 0 2.59-.45 1.16-.45 2.05-1.41l2.15 2.47q-1.16 1.34-2.9 2.06t-3.98.72Z" style="fill:#121212;fill-opacity:1"/>
  </svg>
</svg>
