<svg xmlns="http://www.w3.org/2000/svg" data-layer-role="icon" data-root-id="2994624956964" preserveAspectRatio="xMinYMin" viewBox="40.6 148.88 638.30994 421.69">
    <path d="M40.6 359.72c0-116.26 94.59-210.84 210.85-210.84H340a248.08 248.08 0 0 0-46.31 36.43l-.08-.08c-2.48 2.48-4.79 5.09-7.15 7.66-.4.43-.81.85-1.2 1.29-.22.24-.45.47-.66.71h-33.15c-90.89 0-164.84 73.94-164.84 164.83s74 164.84 164.84 164.84 164.83-73.95 164.83-164.84a51.85 51.85 0 0 1 39.87-50.35 211.87 211.87 0 0 1 6.18 50.35 209.79 209.79 0 0 1-16.39 81.47l-.51 1.18q-1.78 4.19-3.74 8.27l-.76 1.53c-34.32 70-106.34 118.4-189.44 118.4-116.3 0-210.89-94.57-210.89-210.85Zm427.47 210.85h-88.52a249 249 0 0 0 53.59-44.06h34.93c92 0 166.79-74.82 166.79-166.79S560 192.94 468.07 192.94s-166.78 74.82-166.78 166.78a49.89 49.89 0 0 1-38.44 48.48 212.73 212.73 0 0 1-3.45-78.43c.13-1 .25-1.91.4-2.87q.65-4.09 1.46-8.15c.24-1.23.51-2.45.77-3.68a208.47 208.47 0 0 1 7.26-25.53c.38-1.09.75-2.17 1.16-3.25 1-2.6 2-5.17 3.05-7.72.37-.89.77-1.78 1.15-2.66a211.81 211.81 0 0 1 12.6-24.49l1.11-1.82a212.87 212.87 0 0 1 16.36-23l1.1-1.35c2-2.38 4-4.71 6.07-7 .28-.31.57-.61.85-.91a210.31 210.31 0 0 1 155.33-68.45c116.26 0 210.84 94.58 210.84 210.84s-94.58 210.84-210.84 210.84Z" class="cls-1" style="fill:#3f63c8;fill-opacity:1"/>
    <path d="M222.64 321.29c-.18 1.14-.32 2.29-.48 3.43a245.45 245.45 0 0 0-2.47 32.55c0 .82-.06 1.63-.06 2.45h.05a245.65 245.65 0 0 0 3.58 42.13 49.7 49.7 0 0 1-.11-84.19c-.21 1.2-.32 2.42-.51 3.63Zm269.8-6.29a51.66 51.66 0 0 1 .13 89.31 244.88 244.88 0 0 0-.13-89.31Z" class="cls-2" style="fill:#4a73e8;fill-opacity:1"/>
    <path d="M254.77 233A244.94 244.94 0 0 0 240 261.69c-.44 1-.89 2-1.31 3-1.26 3-2.46 6-3.59 9.09l-.61 1.59a85.75 85.75 0 1 0 101.07 84.33c0-72.15 58.7-130.85 130.85-130.85s130.86 58.7 130.86 130.85-58.72 130.87-130.87 130.87h-7.49a249.58 249.58 0 0 0 12.61-22.67c.28-.59.59-1.17.87-1.76 1.55-3.21 3-6.45 4.4-9.71l.57-1.33c1.25-3 2.47-6 3.6-9a87.68 87.68 0 1 0-102.28-86.41 129 129 0 0 1-128.9 128.9c-71.08 0-128.91-57.82-128.91-128.9s57.83-128.9 128.91-128.9h6.29c-.44.76-.88 1.47-1.3 2.21Z" class="cls-3" style="fill:#819ef0;fill-opacity:1"/>
</svg>

